<svg xmlns="http://www.w3.org/2000/svg" width="17.47" height="17.47" viewBox="0 0 17.47 17.47">
  <g id="vuesax_bulk_danger" data-name="vuesax/bulk/danger" transform="translate(-428 -252)">
    <g id="danger" transform="translate(428 252)">
      <path id="Vector" d="M14.686,10.115,10.033,1.744A2.9,2.9,0,0,0,7.59,0,2.9,2.9,0,0,0,5.147,1.744L.494,10.115a2.876,2.876,0,0,0-.182,2.9,2.863,2.863,0,0,0,2.625,1.25h9.306a2.863,2.863,0,0,0,2.625-1.25A2.875,2.875,0,0,0,14.686,10.115Z" transform="translate(1.145 1.467)" fill="#eb4c11" opacity="0.4"/>
      <path id="Vector-2" data-name="Vector" d="M.55,4.769A.554.554,0,0,1,0,4.219V.55A.554.554,0,0,1,.55,0,.554.554,0,0,1,1.1.55V4.219A.554.554,0,0,1,.55,4.769Z" transform="translate(8.185 5.987)" fill="#eb4c11"/>
      <path id="Vector-3" data-name="Vector" d="M.734,1.469a1.1,1.1,0,0,1-.147-.015.466.466,0,0,1-.132-.044.556.556,0,0,1-.132-.066l-.11-.088A.772.772,0,0,1,0,.736.772.772,0,0,1,.213.215L.323.127A.556.556,0,0,1,.455.061.466.466,0,0,1,.587.017a.628.628,0,0,1,.286,0,.443.443,0,0,1,.139.044.556.556,0,0,1,.132.066l.11.088a.772.772,0,0,1,.213.521.772.772,0,0,1-.213.521l-.11.088a.556.556,0,0,1-.132.066.443.443,0,0,1-.139.044A.9.9,0,0,1,.734,1.469Z" transform="translate(8.001 11.636)" fill="#eb4c11"/>
      <path id="Vector-4" data-name="Vector" d="M0,0H17.47V17.47H0Z" fill="none" opacity="0"/>
    </g>
  </g>
</svg>
