<svg xmlns="http://www.w3.org/2000/svg" width="36.674" height="36.674" viewBox="0 0 36.674 36.674">
  <g id="book-saved" transform="translate(-108 -255)">
    <path id="Vector" d="M0,0H36.674V36.674H0Z" transform="translate(108 255)" fill="none" opacity="0"/>
    <path id="Vector-2" data-name="Vector" d="M0,4.031v24.5a1.542,1.542,0,0,0,.749-.168l.061-.03A39.26,39.26,0,0,1,12.179,24.6l.443-.061a3.14,3.14,0,0,0,2.659-3.026V3.052A3.006,3.006,0,0,0,11.98.012,28.662,28.662,0,0,0,1.192,3.587L.81,3.817A1.6,1.6,0,0,1,0,4.031Z" transform="translate(126.337 259.068)" fill="#a3a3a3" opacity="0.4"/>
    <path id="Vector-3" data-name="Vector" d="M0,3.053V21.5a3.14,3.14,0,0,0,2.659,3.026l.5.061a38.906,38.906,0,0,1,11.4,3.759,1.352,1.352,0,0,0,.718.168V4.015a1.6,1.6,0,0,1-.81-.214l-.26-.168A28.807,28.807,0,0,0,3.408.012H3.316A3.01,3.01,0,0,0,0,3.053Z" transform="translate(111.056 259.084)" fill="#a3a3a3"/>
    <path id="Vector-4" data-name="Vector" d="M6.112,0V6.556A.768.768,0,0,1,4.92,7.2L3.056,5.96,1.192,7.2A.77.77,0,0,1,0,6.556V1.742A30.885,30.885,0,0,1,6.112,0Z" transform="translate(130.921 259.248)" fill="#a3a3a3"/>
  </g>
</svg>
