<svg xmlns="http://www.w3.org/2000/svg" width="17.317" height="17.317" viewBox="0 0 17.317 17.317">
  <g id="vuesax_bulk_calendar-2" data-name="vuesax/bulk/calendar-2" transform="translate(0 0)">
    <g id="calendar-2" transform="translate(0 0)">
      <path id="Vector" d="M0,0H17.317V17.317H0Z" fill="none" opacity="0"/>
      <g id="Group" transform="translate(2.165 0.902)">
        <path id="Vector-2" data-name="Vector" d="M9.893,1.667V.541a.541.541,0,0,0-1.082,0V1.623H4.121V.541a.541.541,0,0,0-1.082,0V1.667A3.065,3.065,0,0,0,0,4.733a.362.362,0,0,0,.361.382H12.57a.358.358,0,0,0,.361-.382A3.065,3.065,0,0,0,9.893,1.667Z" transform="translate(0.028)" fill="#a2acf7"/>
        <path id="Vector-3" data-name="Vector" d="M12.266,0a.724.724,0,0,1,.722.722V5.166c0,2.165-1.082,3.608-3.608,3.608H3.608C1.082,8.774,0,7.331,0,5.166V.722A.724.724,0,0,1,.722,0Z" transform="translate(0 6.198)" fill="#a2acf7" opacity="0.4"/>
      </g>
      <g id="Group-2" data-name="Group" transform="translate(5.412 9.384)">
        <path id="Vector-4" data-name="Vector" d="M.722,1.439a.718.718,0,0,1-.274-.058A.833.833,0,0,1,.209,1.23.833.833,0,0,1,.058.992.718.718,0,0,1,0,.718.718.718,0,0,1,.058.444.833.833,0,0,1,.209.206.833.833,0,0,1,.447.054.722.722,0,0,1,1,.054a.833.833,0,0,1,.238.152.833.833,0,0,1,.152.238.718.718,0,0,1,.058.274.718.718,0,0,1-.058.274.833.833,0,0,1-.152.238A.833.833,0,0,1,1,1.382.718.718,0,0,1,.722,1.439Z" fill="#a2acf7"/>
      </g>
      <g id="Group-3" data-name="Group" transform="translate(7.937 9.378)">
        <path id="Vector-5" data-name="Vector" d="M.722,1.445a.718.718,0,0,1-.274-.058.833.833,0,0,1-.238-.152A.759.759,0,0,1,0,.723.759.759,0,0,1,.209.211.833.833,0,0,1,.447.06.661.661,0,0,1,1,.06a.833.833,0,0,1,.238.152.759.759,0,0,1,.209.512.759.759,0,0,1-.209.512A.833.833,0,0,1,1,1.387.718.718,0,0,1,.722,1.445Z" fill="#a2acf7"/>
      </g>
      <g id="Group-4" data-name="Group" transform="translate(5.412 11.909)">
        <path id="Vector-6" data-name="Vector" d="M.722,1.439a.718.718,0,0,1-.274-.058A.833.833,0,0,1,.209,1.23.759.759,0,0,1,0,.718.759.759,0,0,1,.209.206.833.833,0,0,1,.447.054.722.722,0,0,1,1,.054a.833.833,0,0,1,.238.152.759.759,0,0,1,.209.512.759.759,0,0,1-.209.512A.833.833,0,0,1,1,1.382.718.718,0,0,1,.722,1.439Z" fill="#a2acf7"/>
      </g>
    </g>
  </g>
</svg>
