<svg xmlns="http://www.w3.org/2000/svg" width="17.61" height="17.61" viewBox="0 0 17.61 17.61">
  <g id="vuesax_bulk_tick-circle" data-name="vuesax/bulk/tick-circle" transform="translate(-748 -188)">
    <g id="tick-circle" transform="translate(748 188)">
      <path id="Vector" d="M14.675,7.337A7.337,7.337,0,1,1,7.337,0,7.337,7.337,0,0,1,14.675,7.337Z" transform="translate(1.467 1.467)" fill="#33d985" opacity="0.4"/>
      <path id="Vector-2" data-name="Vector" d="M2.625,5.259A.55.55,0,0,1,2.236,5.1L.16,3.021a.55.55,0,0,1,.778-.778L2.625,3.931,6.4.16a.55.55,0,0,1,.778.778L3.014,5.1A.55.55,0,0,1,2.625,5.259Z" transform="translate(5.138 6.173)" fill="#33d985"/>
      <path id="Vector-3" data-name="Vector" d="M0,0H17.61V17.61H0Z" fill="none" opacity="0"/>
    </g>
  </g>
</svg>
