<svg id="vuesax_bulk_clock" data-name="vuesax/bulk/clock" xmlns="http://www.w3.org/2000/svg" width="17.317" height="17.317" viewBox="0 0 17.317 17.317">
  <g id="clock">
    <path id="Vector" d="M14.431,7.215A7.215,7.215,0,1,1,7.215,0,7.215,7.215,0,0,1,14.431,7.215Z" transform="translate(1.443 1.443)" fill="#a2acf7" opacity="0.4"/>
    <path id="Vector-2" data-name="Vector" d="M3.478,6.617A.483.483,0,0,1,3.2,6.537L.967,5.2A2.128,2.128,0,0,1,0,3.5V.541A.545.545,0,0,1,.541,0a.545.545,0,0,1,.541.541V3.5a1.066,1.066,0,0,0,.44.772L3.759,5.606a.54.54,0,0,1,.188.743A.556.556,0,0,1,3.478,6.617Z" transform="translate(7.858 4.878)" fill="#a2acf7"/>
    <path id="Vector-3" data-name="Vector" d="M0,0H17.317V17.317H0Z" fill="none" opacity="0"/>
  </g>
</svg>
