<svg xmlns="http://www.w3.org/2000/svg" width="36.875" height="36.875" viewBox="0 0 36.875 36.875">
  <g id="vuesax_bulk_home-2" data-name="vuesax/bulk/home-2" transform="translate(-620 -188)">
    <g id="home-2" transform="translate(620 188)">
      <path id="Vector" d="M27.733,7.4,18.883,1.21a7.456,7.456,0,0,0-8.435.2L2.75,7.418A7.917,7.917,0,0,0,0,13.01v10.6a7.115,7.115,0,0,0,7.1,7.114H23.661a7.1,7.1,0,0,0,7.1-7.1V13.21A7.841,7.841,0,0,0,27.733,7.4Z" transform="translate(3.058 3.076)" fill="#0071ff" opacity="0.4"/>
      <path id="Vector-2" data-name="Vector" d="M1.152,6.914A1.161,1.161,0,0,1,0,5.762V1.152A1.161,1.161,0,0,1,1.152,0,1.161,1.161,0,0,1,2.3,1.152V5.762A1.161,1.161,0,0,1,1.152,6.914Z" transform="translate(17.285 21.894)" fill="#0071ff"/>
      <path id="Vector-3" data-name="Vector" d="M0,0H36.875V36.875H0Z" fill="none" opacity="0"/>
    </g>
  </g>
</svg>
