<svg xmlns="http://www.w3.org/2000/svg" width="36.674" height="36.674" viewBox="0 0 36.674 36.674">
  <g id="vuesax_bulk_sms" data-name="vuesax/bulk/sms" transform="translate(-556 -252)">
    <g id="sms" transform="translate(556 252)">
      <path id="Vector" d="M0,0H36.674V36.674H0Z" fill="none" opacity="0"/>
      <path id="Vector-2" data-name="Vector" d="M22.921,25.978H7.64c-4.584,0-7.64-2.292-7.64-7.64V7.64C0,2.292,3.056,0,7.64,0H22.921c4.584,0,7.64,2.292,7.64,7.64v10.7C30.562,23.685,27.506,25.978,22.921,25.978Z" transform="translate(3.056 5.348)" fill="#a3a3a3" opacity="0.4"/>
      <g id="Group" transform="translate(9.546 12.598)">
        <path id="Vector-3" data-name="Vector" d="M8.791,7.069A5.681,5.681,0,0,1,5.215,5.862L.432,2.041A1.142,1.142,0,1,1,1.853.253l4.783,3.82a3.646,3.646,0,0,0,4.294,0L15.713.253a1.128,1.128,0,0,1,1.6.183,1.128,1.128,0,0,1-.183,1.6l-4.783,3.82A5.608,5.608,0,0,1,8.791,7.069Z" transform="translate(0 0)" fill="#a3a3a3"/>
      </g>
    </g>
  </g>
</svg>
