<svg xmlns="http://www.w3.org/2000/svg" width="37" height="37" viewBox="0 0 37 37">
  <g id="monitor-recorder" transform="translate(-492 -188)">
    <path id="Vector" d="M29.245,6.46v9.527H0V6.46A6.468,6.468,0,0,1,6.46,0H22.786A6.468,6.468,0,0,1,29.245,6.46Z" transform="translate(495.083 192.625)" fill="#a3a3a3" opacity="0.4"/>
    <path id="Vector-2" data-name="Vector" d="M0,0V.293a6.458,6.458,0,0,0,6.46,6.46h5.55a1.546,1.546,0,0,1,1.542,1.542V9.558A1.546,1.546,0,0,1,12.01,11.1H8.525a1.095,1.095,0,0,0,0,2.189H20.751a1.095,1.095,0,1,0,0-2.189H17.282A1.546,1.546,0,0,1,15.74,9.558V8.294a1.546,1.546,0,0,1,1.542-1.542h5.5a6.458,6.458,0,0,0,6.46-6.46V0Z" transform="translate(495.083 208.612)" fill="#a3a3a3"/>
    <path id="Vector-3" data-name="Vector" d="M13.86,2.066,12.118,3.284V2.636A2.635,2.635,0,0,0,9.481,0h-6.6A2.865,2.865,0,0,0,0,2.868V7.924a2.413,2.413,0,0,0,2.636,2.636h6.83A2.635,2.635,0,0,0,12.1,7.924V7.261l1.742,1.218c.879.6,1.573.231,1.573-.817V2.883C15.417,1.835,14.723,1.48,13.86,2.066Z" transform="translate(512.042 189.572)" fill="#a3a3a3"/>
    <path id="Vector-4" data-name="Vector" d="M0,0H37V37H0Z" transform="translate(492 188)" fill="none" opacity="0"/>
  </g>
</svg>
