<svg xmlns="http://www.w3.org/2000/svg" width="208.498" height="184.798" viewBox="0 0 208.498 184.798">
  <g id="Group_6007" data-name="Group 6007" transform="translate(-11058.11 -3038.679)">
    <g id="freepik--Shadow--inject-2" transform="translate(11058.11 3211.787)">
      <ellipse id="freepik--path--inject-2" cx="100.118" cy="5.845" rx="100.118" ry="5.845" transform="translate(0 0)" fill="#f5f5f5"/>
    </g>
    <g id="Group_6006" data-name="Group 6006" transform="translate(11122.014 3038.679)">
      <path id="Path_2395" data-name="Path 2395" d="M252.267,158a47.454,47.454,0,1,1,27.047-61.422A47.454,47.454,0,0,1,252.267,158Z" transform="translate(-184.6 -63.292)" fill="#eceff1" opacity="0.2"/>
      <path id="Path_2396" data-name="Path 2396" d="M251.033,67.107l-37.22,84.529c-.573-.434-1.141-.883-1.7-1.337a46.89,46.89,0,0,1-9.295-10.374h0L234.969,66.91a46.958,46.958,0,0,1,16.064.2Z" transform="translate(-191.953 -63.297)" fill="#fff" opacity="0.1"/>
      <path id="Path_2397" data-name="Path 2397" d="M295.019,84.846,260.024,164.32a47.392,47.392,0,0,1-20.964-4.864L277.271,72.67A47.505,47.505,0,0,1,295.019,84.846Z" transform="translate(-209.48 -66.371)" fill="#fff" opacity="0.1"/>
      <path id="Path_2398" data-name="Path 2398" d="M193.189,78.983a50.48,50.48,0,1,1,7.095,71.037,50.48,50.48,0,0,1-7.095-71.037Zm74.935,61.324a46.349,46.349,0,1,0-65.227,6.522,46.349,46.349,0,0,0,65.227-6.522Z" transform="translate(-181.775 -60.472)" fill="#eceff1"/>
      <path id="Path_2399" data-name="Path 2399" d="M353.373,214.337c4.973,2.969,9.7,6.233,14.35,9.6s9.176,6.873,13.632,10.472,8.83,7.3,13.049,11.19q3.17,2.912,6.2,5.98c2.024,2.065,4.012,4.131,5.887,6.372a2.907,2.907,0,0,1-3.615,4.42c-2.582-1.394-5-2.933-7.41-4.508s-4.766-3.217-7.09-4.906c-4.647-3.367-9.145-6.914-13.549-10.575s-8.742-7.4-12.961-11.3-8.355-7.88-12.248-12.166a2.99,2.99,0,0,1,3.749-4.58Z" transform="translate(-262.567 -134.678)" fill="#eceff1"/>
    </g>
    <g id="freepik--Folder--inject-2" transform="translate(11071.33 3115.784)">
      <path id="Path_2402" data-name="Path 2402" d="M213.4,225.518h0a6.558,6.558,0,0,1,6.047-4.3h41.335a4.885,4.885,0,0,1,5.019,5.566l-10.678,89.595a6.5,6.5,0,0,1-6.336,5.541H117.631a4.874,4.874,0,0,1-5.014-5.541L121.57,241.1a6.5,6.5,0,0,1,6.336-5.541h71.372A15.321,15.321,0,0,0,213.4,225.518Z" transform="translate(-96.636 -220.07)" fill="#eceff1"/>
      <path id="Path_2403" data-name="Path 2403" d="M117.23,321.883H254.279l7.807-92.213H125.043Z" transform="translate(-98.89 -224.16)" fill="#f0f0f0"/>
      <path id="Path_2404" data-name="Path 2404" d="M117.23,321.883H254.279l5.649-92.213H125.043Z" transform="translate(-98.89 -224.16)" fill="#e0e0e0"/>
      <path id="Path_2405" data-name="Path 2405" d="M117.23,319.141H254.279L258.988,224H121.944Z" transform="translate(-98.89 -221.418)" fill="#f0f0f0"/>
      <path id="Path_2406" data-name="Path 2406" d="M117.23,319.141H254.279L256.143,224h-134.2Z" transform="translate(-98.89 -221.418)" fill="#e0e0e0"/>
      <path id="Path_2407" data-name="Path 2407" d="M117.23,316.722H254.279L255.095,219H118.051Z" transform="translate(-98.89 -219)" fill="#f0f0f0"/>
      <path id="Path_2408" data-name="Path 2408" d="M115.426,318.454H252.475l-2.814-95.874H113.5Z" transform="translate(-97.086 -220.731)" fill="#e0e0e0"/>
      <path id="Path_2409" data-name="Path 2409" d="M113.424,319.141H250.473L246.4,224H109.36Z" transform="translate(-95.083 -221.418)" fill="#f0f0f0"/>
      <path id="Path_2410" data-name="Path 2410" d="M111.165,320.485H248.214l-6.48-93.705H104.69Z" transform="translate(-92.825 -222.763)" fill="#e0e0e0"/>
      <path id="Path_2411" data-name="Path 2411" d="M110.2,321.235H247.247l-7.513-92.9H102.69Z" transform="translate(-91.858 -223.512)" fill="#f0f0f0"/>
      <path id="Path_2412" data-name="Path 2412" d="M168.683,236.69h0a4.467,4.467,0,0,1,4.673-4.4h41.335a7.229,7.229,0,0,1,6.785,5.68l16.333,83.651a4.544,4.544,0,0,1-4.57,5.68H102.082a7.227,7.227,0,0,1-6.79-5.68L81.819,252.656a4.544,4.544,0,0,1,4.57-5.68h71.377C163.963,246.976,168.471,242.711,168.683,236.69Z" transform="translate(-81.712 -225.423)" fill="#eceff1"/>
      <path id="Path_2413" data-name="Path 2413" d="M168.683,236.69h0a4.467,4.467,0,0,1,4.673-4.4h41.335a7.229,7.229,0,0,1,6.785,5.68l16.333,83.651a4.544,4.544,0,0,1-4.57,5.68H102.082a7.227,7.227,0,0,1-6.79-5.68L81.819,252.656a4.544,4.544,0,0,1,4.57-5.68h71.377C163.963,246.976,168.471,242.711,168.683,236.69Z" transform="translate(-81.712 -225.423)" opacity="0.2"/>
    </g>
  </g>
</svg>
