<svg xmlns="http://www.w3.org/2000/svg" width="36.674" height="36.674" viewBox="0 0 36.674 36.674">
  <g id="vuesax_bulk_search-normal" data-name="vuesax/bulk/search-normal" transform="translate(-428 -188)">
    <g id="search-normal" transform="translate(428 188)">
      <path id="Vector" d="M29.034,14.517A14.517,14.517,0,1,1,14.517,0,14.517,14.517,0,0,1,29.034,14.517Z" transform="translate(3.056 3.056)" fill="#a3a3a3" opacity="0.4"/>
      <path id="Vector-2" data-name="Vector" d="M3.9,4.97a1.064,1.064,0,0,1-.749-.306L.309,1.822a1.079,1.079,0,0,1,0-1.513,1.079,1.079,0,0,1,1.513,0L4.665,3.152a1.079,1.079,0,0,1,0,1.513A1.128,1.128,0,0,1,3.9,4.97Z" transform="translate(28.648 28.648)" fill="#a3a3a3"/>
      <path id="Vector-3" data-name="Vector" d="M0,0H36.674V36.674H0Z" fill="none" opacity="0"/>
    </g>
  </g>
</svg>
