<svg xmlns="http://www.w3.org/2000/svg" xmlns:xlink="http://www.w3.org/1999/xlink" width="48"
  height="48" viewBox="0 0 48 48">
  <defs>
    <clipPath id="clip-path">
      <rect id="Rectangle_1027" data-name="Rectangle 1027" width="39.537" height="46.327" rx="18"
        fill="none" />
    </clipPath>
  </defs>
  <g id="Group_5529" data-name="Group 5529" transform="translate(-1839 -983)">
    <circle id="Ellipse_98" data-name="Ellipse 98" cx="24" cy="24" r="24"
      transform="translate(1839 983)" fill="#f6f6f6" />
    <g id="Group_2392" data-name="Group 2392" transform="translate(723.23 136.837)" opacity="0.25"
      style="mix-blend-mode: luminosity;isolation: isolate">
      <g id="Group_1090" data-name="Group 1090" transform="translate(1120 847)">
        <g id="Group_1089" data-name="Group 1089" clip-path="url(#clip-path)">
          <path id="Path_563" data-name="Path 563"
            d="M16.771,20.468s-.917-.71-2.666.575l-.813-1.066a2.629,2.629,0,0,1,3.478.491"
            transform="translate(17.845 -13.421)" fill="#3c67af" />
          <path id="Path_564" data-name="Path 564"
            d="M18.373,12.6s1.085,1.137-.478,2.432l1.054.9s2.416-2.5-.577-3.33"
            transform="translate(13.042 -8.661)" fill="#3c67af" />
          <path id="Path_565" data-name="Path 565"
            d="M40.851,98.82a9.424,9.424,0,0,0-4.89-3.154L28.8,93.427H21.966l-7.158,2.239a9.427,9.427,0,0,0-4.89,3.154Z"
            transform="translate(-4.986 -64.248)" fill="#91d7f4" />
          <path id="Path_566" data-name="Path 566"
            d="M83.028,115.2H71.967c0-1.594.123-3.865.123-3.865.65-9.543,8.894-11.043,8.894-11.043,6.428-1.313,2.924,7.075,2.924,7.075a27.981,27.981,0,0,1-.88,7.834"
            transform="translate(-71.967 -68.87)" fill="#2fbce1" />
          <rect id="Rectangle_1026" data-name="Rectangle 1026" width="9.384" height="7.718"
            transform="translate(15.706 23.516)" fill="#91d7f4" />
          <path id="Path_567" data-name="Path 567"
            d="M39.025,78.881V75.293h9.384V77.07c-2.677,1.879-5.9,2.118-9.384,1.811"
            transform="translate(-23.319 -51.777)" fill="#56c6f1" />
          <path id="Path_568" data-name="Path 568"
            d="M2.421,111.452c-.18-4.162-.125-5.3-.081-6.724a10.89,10.89,0,0,1,3.37-8.182l.011,0,6.69-1.84s-1.407,2.077,4.741,2.077c0,0,4.05-.133,4.642-2.077l6.794,1.84s5.807,1.2,6.8,6.362l-3.414,5.3.122,3.251Z"
            transform="translate(3.295 -65.125)" fill="#3c67af" />
          <path id="Path_569" data-name="Path 569"
            d="M69.4,26.066c-.267-1.775.181-3.476.16-5.225-.015-1.174.257-2.946,1.987-3.094,2.4-.207,3.138,3.286,3.279,4.8a20.735,20.735,0,0,1-.9,6.384c-.172.737-.154,2.211-1.138,2.567-.841.3-1.7-.413-2.132-.946-1.037-1.287-1.038-3-1.26-4.485"
            transform="translate(-60.987 -12.198)" fill="#3c67af" />
          <path id="Path_570" data-name="Path 570"
            d="M26.142,29.276c.949,3.131,2.619,3.994,2.619,3.994l2.24.369c1.289-.138,3.512-.581,3.512-.581,5.117-1.468,6.6-1.864,7.393-3.5.034-.07,4.034-11.784,4.034-11.784.654-6.03-6.827-7.284-7.956-7.442-1.117-.217-8.24-1.887-10.345,3.9a26.9,26.9,0,0,0-1.5,15.048"
            transform="translate(-15.95 -6.834)" fill="#91d7f4" />
          <path id="Path_571" data-name="Path 571"
            d="M17.21,1.559C16.8,3.431,17.184,6.022,18.9,7.217c1.867,1.3,3.469.945,5.716,1.365,2.336.438,4.726.611,7.073.994,1.644.269,3.542.422,4.3,1.894a8.505,8.505,0,0,1,.524,6.376c-.56,1.578-.732,3.113-1.347,5.168a19.49,19.49,0,0,0,3.77-3.642,18.325,18.325,0,0,0,2.251-4.3,13.293,13.293,0,0,0,1.395-4.66C42.7,8.282,41.476,7.354,40.129,5.4A8.964,8.964,0,0,0,34.77,1.707S23.026,2.263,23.247,0c0,0-2.821.607-2.284,2.19,0,0-2.951-.454-2.325-2.19A2.485,2.485,0,0,0,17.21,1.559"
            transform="translate(-9.371)" fill="#3c67af" />
          <path id="Path_572" data-name="Path 572"
            d="M25.54,52.793s1.265-2.325,3.253-.948c0,0,.905.6-.21,2.152,0,0-1.619,2.237-3.559,1Z"
            transform="translate(1.133 -35.353)" fill="#91d7f4" />
          <path id="Path_573" data-name="Path 573"
            d="M28.931,38.479s-.009,4.162-.915,6.37l.961.161s.506-2.855,2.248-2.888Z"
            transform="translate(-2.06 -26.461)" fill="#3c67af" />
          <path id="Path_574" data-name="Path 574"
            d="M.962,116.346H11.3s-.036-2.071-.041-2.218a35.029,35.029,0,0,0-.665-6.094c-.622-2.868-2.273-5.412-5.907-6.141a4.138,4.138,0,0,0-4.043,1.671S-1,105.275.962,116.346"
            transform="translate(28.235 -70.019)" fill="#2fbce1" />
        </g>
      </g>
    </g>
  </g>
</svg>