<svg xmlns="http://www.w3.org/2000/svg" width="24" height="24" viewBox="0 0 24 24">
  <g id="vuesax_bulk_car" data-name="vuesax/bulk/car" transform="translate(-172 -188)">
    <g id="car">
      <path id="Vector" d="M20.932,3.41c-.15-1.65-.59-3.41-3.8-3.41H4.372C1.162,0,.732,1.76.572,3.41L.012,9.5a2.729,2.729,0,0,0,.7,2.09,2.806,2.806,0,0,0,2.08.91h1.88A1.919,1.919,0,0,0,6.8,10.96l.2-.6c.23-.69.29-.86,1.19-.86h5.12c.9,0,.93.1,1.19.86l.2.6a1.919,1.919,0,0,0,2.13,1.54h1.88a2.822,2.822,0,0,0,2.08-.91,2.729,2.729,0,0,0,.7-2.09Z" transform="translate(173.248 198.25)" fill="#292d32" opacity="0.4"/>
      <path id="Vector-2" data-name="Vector" d="M18.75,5.17H17.73l-.38-1.81C16.99,1.61,16.24,0,13.26,0H6.24C3.26,0,2.51,1.61,2.15,3.36L1.77,5.17H.75a.75.75,0,0,0,0,1.5h.71l-.42,2a4.636,4.636,0,0,1,2.33-.5H16.13a4.636,4.636,0,0,1,2.33.5l-.42-2h.71a.75.75,0,0,0,0-1.5Z" transform="translate(174.25 190.08)" fill="#292d32"/>
      <path id="Vector-3" data-name="Vector" d="M3.75,1.5h-3A.755.755,0,0,1,0,.75.755.755,0,0,1,.75,0h3A.755.755,0,0,1,4.5.75.755.755,0,0,1,3.75,1.5Z" transform="translate(177.25 202.25)" fill="#292d32"/>
      <path id="Vector-4" data-name="Vector" d="M3.75,1.5h-3A.755.755,0,0,1,0,.75.755.755,0,0,1,.75,0h3A.755.755,0,0,1,4.5.75.755.755,0,0,1,3.75,1.5Z" transform="translate(186.25 202.25)" fill="#292d32"/>
      <path id="Vector-5" data-name="Vector" d="M0,0H24V24H0Z" transform="translate(172 188)" fill="none" opacity="0"/>
    </g>
  </g>
</svg>
