<svg xmlns="http://www.w3.org/2000/svg" width="40" height="40" viewBox="0 0 40 40">
  <g id="vuesax_bulk_car" data-name="vuesax/bulk/car" transform="translate(-172 -188)">
    <g id="car" transform="translate(172 188)">
      <path id="Vector" d="M34.886,5.683C34.636,2.933,33.9,0,28.553,0H7.286C1.936,0,1.219,2.933.953,5.683L.019,15.833a4.548,4.548,0,0,0,1.167,3.483,4.677,4.677,0,0,0,3.467,1.517H7.786c2.7,0,3.217-1.55,3.55-2.567l.333-1c.383-1.15.483-1.433,1.983-1.433h8.533c1.5,0,1.55.167,1.983,1.433l.333,1c.333,1.017.85,2.567,3.55,2.567h3.133a4.7,4.7,0,0,0,3.467-1.517,4.548,4.548,0,0,0,1.167-3.483Z" transform="translate(2.081 17.083)" fill="#9ca3af" opacity="0.4"/>
      <path id="Vector-2" data-name="Vector" d="M31.25,8.617h-1.7L28.917,5.6C28.317,2.683,27.067,0,22.1,0H10.4C5.433,0,4.183,2.683,3.583,5.6L2.95,8.617H1.25a1.25,1.25,0,0,0,0,2.5H2.433l-.7,3.333a7.727,7.727,0,0,1,3.883-.833H26.883a7.727,7.727,0,0,1,3.883.833l-.7-3.333H31.25a1.25,1.25,0,1,0,0-2.5Z" transform="translate(3.75 3.467)" fill="#9ca3af"/>
      <path id="Vector-3" data-name="Vector" d="M6.25,2.5h-5A1.259,1.259,0,0,1,0,1.25,1.259,1.259,0,0,1,1.25,0h5A1.259,1.259,0,0,1,7.5,1.25,1.259,1.259,0,0,1,6.25,2.5Z" transform="translate(8.75 23.75)" fill="#9ca3af"/>
      <path id="Vector-4" data-name="Vector" d="M6.25,2.5h-5A1.259,1.259,0,0,1,0,1.25,1.259,1.259,0,0,1,1.25,0h5A1.259,1.259,0,0,1,7.5,1.25,1.259,1.259,0,0,1,6.25,2.5Z" transform="translate(23.75 23.75)" fill="#9ca3af"/>
      <path id="Vector-5" data-name="Vector" d="M0,0H40V40H0Z" fill="none" opacity="0"/>
    </g>
  </g>
</svg>
