<svg xmlns="http://www.w3.org/2000/svg" width="19" height="19" viewBox="0 0 19 19">
  <g id="vuesax_bold_personalcard" data-name="vuesax/bold/personalcard" transform="translate(-172 -252)">
    <g id="personalcard" transform="translate(172 252)">
      <path id="Vector" d="M3.167,0h9.5a3.156,3.156,0,0,1,3.167,3.143v7.964a3.156,3.156,0,0,1-3.167,3.143h-9.5A3.156,3.156,0,0,1,0,11.107V3.143A3.156,3.156,0,0,1,3.167,0Zm7.521,3.3A1.829,1.829,0,1,0,12.516,5.13,1.835,1.835,0,0,0,10.688,3.3ZM7.624,10.814a.4.4,0,0,0,.293.127h5.542a.4.4,0,0,0,.293-.127.412.412,0,0,0,.1-.3A2.809,2.809,0,0,0,11.329,8a6.855,6.855,0,0,0-1.275,0,2.8,2.8,0,0,0-2.525,2.51A.376.376,0,0,0,7.624,10.814Zm-5.249.071H3.958a.594.594,0,0,0,0-1.188H2.375a.594.594,0,0,0,0,1.188Zm0-3.167H5.542a.594.594,0,1,0,0-1.187H2.375a.594.594,0,0,0,0,1.188Zm0-3.167H6.333a.594.594,0,0,0,0-1.187H2.375a.594.594,0,0,0,0,1.187Z" transform="translate(1.583 2.375)" fill="#477aeb"/>
      <path id="Vector-2" data-name="Vector" d="M19,19H0V0H19Z" transform="translate(0 0)" fill="none" opacity="0"/>
    </g>
  </g>
</svg>
