<svg xmlns="http://www.w3.org/2000/svg" width="37" height="37" viewBox="0 0 37 37">
  <g id="vuesax_bulk_profile-2user" data-name="vuesax/bulk/profile-2user" transform="translate(-172 -252)">
    <g id="profile-2user" transform="translate(172 252)">
      <path id="Vector" d="M7.323,0a7.316,7.316,0,0,0-.185,14.63,1.244,1.244,0,0,1,.339,0h.108A7.317,7.317,0,0,0,7.323,0Z" transform="translate(6.552 3.083)" fill="#a3a3a3" opacity="0.4"/>
      <path id="Vector-2" data-name="Vector" d="M18.685,2.151a15.307,15.307,0,0,0-15.648,0A6.085,6.085,0,0,0,0,7.13a6.034,6.034,0,0,0,3.022,4.949,14.244,14.244,0,0,0,7.832,2.174,14.244,14.244,0,0,0,7.832-2.174A6.083,6.083,0,0,0,21.707,7.1,6.07,6.07,0,0,0,18.685,2.151Z" transform="translate(3.022 19.664)" fill="#a3a3a3"/>
      <path id="Vector-3" data-name="Vector" d="M9.065,5.062A5.518,5.518,0,0,1,4.24,11.028H4.162a.721.721,0,0,0-.262.031A5.531,5.531,0,0,1,0,9.779,7.055,7.055,0,0,0,2.313,3.921,7.155,7.155,0,0,0,1.125.56a5.535,5.535,0,0,1,7.94,4.5Z" transform="translate(21.753 6.254)" fill="#a3a3a3" opacity="0.4"/>
      <path id="Vector-4" data-name="Vector" d="M12.333,6.306A4.7,4.7,0,0,1,9.651,9.975a10.882,10.882,0,0,1-5.411,1.2A5.5,5.5,0,0,0,6.12,7.6,6.074,6.074,0,0,0,3.546,2.39,12.727,12.727,0,0,0,0,.448a12.049,12.049,0,0,1,10.329,1.8A4.684,4.684,0,0,1,12.333,6.306Z" transform="translate(21.568 19.27)" fill="#a3a3a3"/>
      <path id="Vector-5" data-name="Vector" d="M0,0H37V37H0Z" fill="none" opacity="0"/>
    </g>
  </g>
</svg>
