<svg xmlns="http://www.w3.org/2000/svg" width="24" height="24" viewBox="0 0 24 24">
  <g id="vuesax_bulk_driver" data-name="vuesax/bulk/driver" transform="translate(-108 -252)">
    <g id="driver">
      <path id="Vector" d="M0,0H24V24H0Z" transform="translate(108 252)" fill="none" opacity="0"/>
      <path id="Vector-2" data-name="Vector" d="M17.31,7.99H2.68A2.687,2.687,0,0,1,0,5.31V2.68A2.687,2.687,0,0,1,2.68,0H17.31a2.687,2.687,0,0,1,2.68,2.68V5.31A2.693,2.693,0,0,1,17.31,7.99Z" transform="translate(110.01 254.01)" fill="#292d32" opacity="0.4"/>
      <path id="Vector-3" data-name="Vector" d="M17.31,7.99H2.68A2.687,2.687,0,0,1,0,5.31V2.68A2.687,2.687,0,0,1,2.68,0H17.31a2.687,2.687,0,0,1,2.68,2.68V5.31A2.693,2.693,0,0,1,17.31,7.99Z" transform="translate(110.01 266.01)" fill="#292d32" opacity="0.4"/>
      <g id="Group">
        <path id="Vector-4" data-name="Vector" d="M.75,3.5A.755.755,0,0,1,0,2.75v-2A.755.755,0,0,1,.75,0,.755.755,0,0,1,1.5.75v2A.755.755,0,0,1,.75,3.5Z" transform="translate(113.25 256.25)" fill="#292d32"/>
      </g>
      <g id="Group-2" data-name="Group">
        <path id="Vector-5" data-name="Vector" d="M.75,3.5A.755.755,0,0,1,0,2.75v-2A.755.755,0,0,1,.75,0,.755.755,0,0,1,1.5.75v2A.755.755,0,0,1,.75,3.5Z" transform="translate(117.25 256.25)" fill="#292d32"/>
      </g>
      <g id="Group-3" data-name="Group">
        <path id="Vector-6" data-name="Vector" d="M.75,3.5A.755.755,0,0,1,0,2.75v-2A.755.755,0,0,1,.75,0,.755.755,0,0,1,1.5.75v2A.755.755,0,0,1,.75,3.5Z" transform="translate(113.25 268.25)" fill="#292d32"/>
      </g>
      <g id="Group-4" data-name="Group">
        <path id="Vector-7" data-name="Vector" d="M.75,3.5A.755.755,0,0,1,0,2.75v-2A.755.755,0,0,1,.75,0,.755.755,0,0,1,1.5.75v2A.755.755,0,0,1,.75,3.5Z" transform="translate(117.25 268.25)" fill="#292d32"/>
      </g>
      <g id="Group-5" data-name="Group">
        <path id="Vector-8" data-name="Vector" d="M4.75,1.5h-4A.755.755,0,0,1,0,.75.755.755,0,0,1,.75,0h4A.755.755,0,0,1,5.5.75.755.755,0,0,1,4.75,1.5Z" transform="translate(121.25 257.25)" fill="#292d32"/>
      </g>
      <g id="Group-6" data-name="Group">
        <path id="Vector-9" data-name="Vector" d="M4.75,1.5h-4A.755.755,0,0,1,0,.75.755.755,0,0,1,.75,0h4A.755.755,0,0,1,5.5.75.755.755,0,0,1,4.75,1.5Z" transform="translate(121.25 269.25)" fill="#292d32"/>
      </g>
    </g>
  </g>
</svg>
