<svg xmlns="http://www.w3.org/2000/svg" width="24" height="24" viewBox="0 0 24 24">
  <g id="vuesax_outline_driver" data-name="vuesax/outline/driver" transform="translate(-108 -252)">
    <g id="driver">
      <path id="Vector" d="M18.06,9.49H3.43A3.436,3.436,0,0,1,0,6.06V3.43A3.436,3.436,0,0,1,3.43,0H18.06a3.436,3.436,0,0,1,3.43,3.43V6.06A3.436,3.436,0,0,1,18.06,9.49Zm-14.64-8A1.931,1.931,0,0,0,1.49,3.42V6.05A1.931,1.931,0,0,0,3.42,7.98H18.05a1.931,1.931,0,0,0,1.93-1.93V3.42a1.931,1.931,0,0,0-1.93-1.93Z" transform="translate(109.26 253.26)" fill="#292d32"/>
      <path id="Vector-2" data-name="Vector" d="M18.06,9.49H3.43A3.436,3.436,0,0,1,0,6.06V3.43A3.436,3.436,0,0,1,3.43,0H18.06a3.436,3.436,0,0,1,3.43,3.43V6.06A3.436,3.436,0,0,1,18.06,9.49Zm-14.64-8A1.931,1.931,0,0,0,1.49,3.42V6.05A1.931,1.931,0,0,0,3.42,7.98H18.05a1.931,1.931,0,0,0,1.93-1.93V3.42a1.931,1.931,0,0,0-1.93-1.93Z" transform="translate(109.26 265.26)" fill="#292d32"/>
      <path id="Vector-3" data-name="Vector" d="M.75,3.5A.755.755,0,0,1,0,2.75v-2A.755.755,0,0,1,.75,0,.755.755,0,0,1,1.5.75v2A.755.755,0,0,1,.75,3.5Z" transform="translate(113.25 256.25)" fill="#292d32"/>
      <path id="Vector-4" data-name="Vector" d="M.75,3.5A.755.755,0,0,1,0,2.75v-2A.755.755,0,0,1,.75,0,.755.755,0,0,1,1.5.75v2A.755.755,0,0,1,.75,3.5Z" transform="translate(117.25 256.25)" fill="#292d32"/>
      <path id="Vector-5" data-name="Vector" d="M.75,3.5A.755.755,0,0,1,0,2.75v-2A.755.755,0,0,1,.75,0,.755.755,0,0,1,1.5.75v2A.755.755,0,0,1,.75,3.5Z" transform="translate(113.25 268.25)" fill="#292d32"/>
      <path id="Vector-6" data-name="Vector" d="M.75,3.5A.755.755,0,0,1,0,2.75v-2A.755.755,0,0,1,.75,0,.755.755,0,0,1,1.5.75v2A.755.755,0,0,1,.75,3.5Z" transform="translate(117.25 268.25)" fill="#292d32"/>
      <path id="Vector-7" data-name="Vector" d="M4.75,1.5h-4A.755.755,0,0,1,0,.75.755.755,0,0,1,.75,0h4A.755.755,0,0,1,5.5.75.755.755,0,0,1,4.75,1.5Z" transform="translate(121.25 257.25)" fill="#292d32"/>
      <path id="Vector-8" data-name="Vector" d="M4.75,1.5h-4A.755.755,0,0,1,0,.75.755.755,0,0,1,.75,0h4A.755.755,0,0,1,5.5.75.755.755,0,0,1,4.75,1.5Z" transform="translate(121.25 269.25)" fill="#292d32"/>
      <path id="Vector-9" data-name="Vector" d="M0,0H24V24H0Z" transform="translate(108 252)" fill="none" opacity="0"/>
    </g>
  </g>
</svg>
