<svg xmlns="http://www.w3.org/2000/svg" width="40" height="40" viewBox="0 0 40 40">
  <g id="vuesax_bulk_chart" data-name="vuesax/bulk/chart" transform="translate(-428 -252)">
    <g id="chart" transform="translate(428 252)">
      <g id="chart-2" data-name="chart">
        <path id="Vector" d="M0,0H40V40H0Z" fill="none" opacity="0"/>
        <g id="Group" transform="translate(3.75 35.417)">
          <path id="Vector-2" data-name="Vector" d="M31.25,2.5h-30A1.259,1.259,0,0,1,0,1.25,1.259,1.259,0,0,1,1.25,0h30A1.259,1.259,0,0,1,32.5,1.25,1.259,1.259,0,0,1,31.25,2.5Z" fill="#9ca3af" opacity="0.4"/>
        </g>
        <g id="Group-2" data-name="Group" transform="translate(5 3.333)">
          <path id="Vector-3" data-name="Vector" d="M4.333,0H1.667A1.672,1.672,0,0,0,0,1.667V16.033A1.672,1.672,0,0,0,1.667,17.7H4.333A1.672,1.672,0,0,0,6,16.033V1.667A1.661,1.661,0,0,0,4.333,0Z" transform="translate(0 10.633)" fill="#9ca3af"/>
          <path id="Vector-4" data-name="Vector" d="M4.333,0H1.667A1.672,1.672,0,0,0,0,1.667V21.35a1.672,1.672,0,0,0,1.667,1.667H4.333A1.672,1.672,0,0,0,6,21.35V1.667A1.672,1.672,0,0,0,4.333,0Z" transform="translate(12 5.317)" fill="#9ca3af"/>
          <path id="Vector-5" data-name="Vector" d="M4.333,0H1.667A1.672,1.672,0,0,0,0,1.667v25a1.672,1.672,0,0,0,1.667,1.667H4.333A1.672,1.672,0,0,0,6,26.667v-25A1.672,1.672,0,0,0,4.333,0Z" transform="translate(24)" fill="#9ca3af"/>
        </g>
      </g>
    </g>
  </g>
</svg>
