<svg xmlns="http://www.w3.org/2000/svg" width="40" height="40" viewBox="0 0 40 40">
  <g id="vuesax_bulk_notification" data-name="vuesax/bulk/notification" transform="translate(-171 -188)">
    <g id="notification" transform="translate(171 188)">
      <path id="Vector" d="M25.049,19.317,23.382,16.55a6.192,6.192,0,0,1-.667-2.467V9.867a9.867,9.867,0,0,0-19.733,0v4.217a6.043,6.043,0,0,1-.667,2.45L.632,19.317A3.9,3.9,0,0,0,2.816,25.2a31.171,31.171,0,0,0,10.033,1.633,31.616,31.616,0,0,0,10.033-1.617,4.019,4.019,0,0,0,2.167-5.9Z" transform="translate(7.184 4.833)" fill="#9ca3af" opacity="0.4"/>
      <path id="Vector-2" data-name="Vector" d="M7.417,2.2A10.165,10.165,0,0,0,3.7,1.5,9.807,9.807,0,0,0,0,2.2,4.172,4.172,0,0,1,3.7,0,4.2,4.2,0,0,1,7.417,2.2Z" transform="translate(16.333 3.333)" fill="#9ca3af"/>
      <path id="Vector-3" data-name="Vector" d="M9.417.017A5.024,5.024,0,0,1,4.7,3.333,4.942,4.942,0,0,1,1.167,1.85,4.6,4.6,0,0,1,0,0C.217.033.433.05.667.083c.383.05.783.1,1.183.133C2.8.3,3.767.35,4.733.35c.95,0,1.9-.05,2.833-.133.35-.033.7-.05,1.033-.1C8.867.083,9.133.05,9.417.017Z" transform="translate(15.3 33.333)" fill="#9ca3af"/>
      <path id="Vector-4" data-name="Vector" d="M0,0H40V40H0Z" fill="none" opacity="0"/>
    </g>
  </g>
</svg>
